<svg height="2030" width="720" xmlns="http://www.w3.org/2000/svg">
<rect height="2030" fill="#555" width="720"></rect>
<text fill="#7f7" font-family="Courier New" font-size="12" xml:space="preserve">
<tspan x="10" y="26"></tspan>
<tspan x="10" y="42">&gt; npmdoc-elm@0.0.2 test /home/travis/build/npmdoc/node-npmdoc-elm</tspan>
<tspan x="10" y="58">&gt; (set -e; export PORT=$(utility2 shServerPortRandom); utility2 test test.js)</tspan>
<tspan x="10" y="74"></tspan>
<tspan x="10" y="90"></tspan>
<tspan x="10" y="106">[MODE_BUILD=npmTest] - 2017-04-04T06:47:43Z - npm-testing /home/travis/build/npmdoc/node-npmdoc-\</tspan>
<tspan x="10" y="122">elm</tspan>
<tspan x="10" y="138"></tspan>
<tspan x="10" y="154"></tspan>
<tspan x="10" y="170">covering $ /home/travis/.nvm/versions/node/v6.10.1/bin/node /home/travis/build/npmdoc/node-npmdo\</tspan>
<tspan x="10" y="186">c-elm/test.js</tspan>
<tspan x="10" y="202">merging file:///home/travis/build/npmdoc/node-npmdoc-elm/tmp/build/test-report.json to test-repo\</tspan>
<tspan x="10" y="218">rt</tspan>
<tspan x="10" y="234">&gt; server listening on http-port 42094</tspan>
<tspan x="10" y="250">created apidoc file:///home/travis/build/npmdoc/node-npmdoc-elm/tmp/build/apidoc.html</tspan>
<tspan x="10" y="266"></tspan>
<tspan x="10" y="282"></tspan>
<tspan x="10" y="298">browserTest - created electron entry-page /home/travis/build/npmdoc/node-npmdoc-elm/tmp/electron\</tspan>
<tspan x="10" y="314">.15b37b81ca20.bf3e96da575ee.html</tspan>
<tspan x="10" y="330"></tspan>
<tspan x="10" y="346">[node test-case 1 of 6 passed] - testCase_buildLib_default</tspan>
<tspan x="10" y="362">[node test-case 2 of 6 passed] - testCase_buildReadme_default</tspan>
<tspan x="10" y="378">[node test-case 3 of 6 passed] - testCase_buildTest_default</tspan>
<tspan x="10" y="394"></tspan>
<tspan x="10" y="410">browserTest - created electron entry-page /home/travis/build/npmdoc/node-npmdoc-elm/tmp/electron\</tspan>
<tspan x="10" y="426">.15b37b81ccf0.6aca689a4e21c.html</tspan>
<tspan x="10" y="442"></tspan>
<tspan x="10" y="458">Xlib:  extension "RANDR" missing on display ":99.0".</tspan>
<tspan x="10" y="474">Xlib:  extension "RANDR" missing on display ":99.0".</tspan>
<tspan x="10" y="490">merging file:///home/travis/build/npmdoc/node-npmdoc-elm/tmp/build/test-report.json to test-repo\</tspan>
<tspan x="10" y="506">rt</tspan>
<tspan x="10" y="522">Xlib:  extension "RANDR" missing on display ":99.0".</tspan>
<tspan x="10" y="538">[5851:0404/064745:WARNING:audio_manager.cc(314)] Multiple instances of AudioManager detected</tspan>
<tspan x="10" y="554">[5851:0404/064745:WARNING:audio_manager.cc(275)] Multiple instances of AudioManager detected</tspan>
<tspan x="10" y="570">[5884:0404/064745:ERROR:sandbox_linux.cc(343)] InitializeSandbox() called with multiple threads \</tspan>
<tspan x="10" y="586">in process gpu-process. </tspan>
<tspan x="10" y="602">merging file:///home/travis/build/npmdoc/node-npmdoc-elm/tmp/build/test-report.json to test-repo\</tspan>
<tspan x="10" y="618">rt</tspan>
<tspan x="10" y="634">[5851:0404/064745:ERROR:browser_gpu_channel_host_factory.cc(131)] Failed to create channel.</tspan>
<tspan x="10" y="650">&gt; server listening on http-port 48142</tspan>
<tspan x="10" y="666">Xlib:  extension "RANDR" missing on display ":99.0".</tspan>
<tspan x="10" y="682">[5852:0404/064746:WARNING:audio_manager.cc(314)] Multiple instances of AudioManager detected</tspan>
<tspan x="10" y="698">[5852:0404/064746:WARNING:audio_manager.cc(275)] Multiple instances of AudioManager detected</tspan>
<tspan x="10" y="714">[5917:0404/064746:ERROR:sandbox_linux.cc(343)] InitializeSandbox() called with multiple threads \</tspan>
<tspan x="10" y="730">in process gpu-process. </tspan>
<tspan x="10" y="746">[5852:0404/064746:ERROR:browser_gpu_channel_host_factory.cc(131)] Failed to create channel.</tspan>
<tspan x="10" y="762"></tspan>
<tspan x="10" y="778">browserTest - opened url /home/travis/build/npmdoc/node-npmdoc-elm/tmp/build/apidoc.html</tspan>
<tspan x="10" y="794"></tspan>
<tspan x="10" y="810">Downloading Elm binaries from https://dl.bintray.com/elmlang/elm-platform/0.18.0/linux-x64.tar.g\</tspan>
<tspan x="10" y="826">z</tspan>
<tspan x="10" y="842"></tspan>
<tspan x="10" y="858">browserTest - opened url http://127.0.0.1:42094?modeTest=1</tspan>
<tspan x="10" y="874"></tspan>
<tspan x="10" y="890">[5852:0404/064748:INFO:CONSOLE(245)] "----------|-----------|-----------|-----------|-----------\</tspan>
<tspan x="10" y="906">|</tspan>
<tspan x="10" y="922">File      |   % Stmts |% Branches |   % Funcs |   % Lines |</tspan>
<tspan x="10" y="938">----------|-----------|-----------|-----------|-----------|</tspan>
<tspan x="10" y="954">----------|-----------|-----------|-----------|-----------|</tspan>
<tspan x="10" y="970">All files |       100 |       100 |       100 |       100 |</tspan>
<tspan x="10" y="986">----------|-----------|-----------|-----------|-----------|</tspan>
<tspan x="10" y="1002">", source: file:///home/travis/build/npmdoc/node-npmdoc-elm/tmp/electron.15b37b81ccf0.6aca689a4e\</tspan>
<tspan x="10" y="1018">21c.html (245)</tspan>
<tspan x="10" y="1034">[5852:0404/064748:INFO:CONSOLE(245)] "created coverage file:///tmp/build/coverage.html/index.htm\</tspan>
<tspan x="10" y="1050">l", source: file:///home/travis/build/npmdoc/node-npmdoc-elm/tmp/electron.15b37b81ccf0.6aca689a4\</tspan>
<tspan x="10" y="1066">e21c.html (245)</tspan>
<tspan x="10" y="1082">[node test-case 4 of 6 passed] - testCase_buildApp_default</tspan>
<tspan x="10" y="1098"></tspan>
<tspan x="10" y="1114">browserTest - created screenCapture file:///home/travis/build/npmdoc/node-npmdoc-elm/tmp/build/s\</tspan>
<tspan x="10" y="1130">creenCapture.npmTest.browser._2Fhome_2Ftravis_2Fbuild_2Fnpmdoc_2Fnode-npmdoc-elm_2Ftmp_2Fbuild_2\</tspan>
<tspan x="10" y="1146">Fapidoc.html.png</tspan>
<tspan x="10" y="1162"></tspan>
<tspan x="10" y="1178">browserTest - created screenCapture file:///home/travis/build/npmdoc/node-npmdoc-elm/tmp/build/s\</tspan>
<tspan x="10" y="1194">creenCapture.npmTest.browser._2Fhome_2Ftravis_2Fbuild_2Fnpmdoc_2Fnode-npmdoc-elm_2Ftmp_2Fbuild_2\</tspan>
<tspan x="10" y="1210">Fapidoc.html.html</tspan>
<tspan x="10" y="1226"></tspan>
<tspan x="10" y="1242">browserTest - exit-code 0 - /home/travis/build/npmdoc/node-npmdoc-elm/tmp/build/apidoc.html</tspan>
<tspan x="10" y="1258"></tspan>
<tspan x="10" y="1274">[node test-case 5 of 6 passed] - testCase_buildApidoc_default</tspan>
<tspan x="10" y="1290"></tspan>
<tspan x="10" y="1306">browserTest - created screenCapture file:///home/travis/build/npmdoc/node-npmdoc-elm/tmp/build/s\</tspan>
<tspan x="10" y="1322">creenCapture.npmTest.browser..png</tspan>
<tspan x="10" y="1338"></tspan>
<tspan x="10" y="1354">browserTest - created screenCapture file:///home/travis/build/npmdoc/node-npmdoc-elm/tmp/build/s\</tspan>
<tspan x="10" y="1370">creenCapture.npmTest.browser..html</tspan>
<tspan x="10" y="1386"></tspan>
<tspan x="10" y="1402">browserTest - exit-code 0 - http://127.0.0.1:42094?modeTest=1</tspan>
<tspan x="10" y="1418"></tspan>
<tspan x="10" y="1434"></tspan>
<tspan x="10" y="1450">browserTest - merged coverage from /home/travis/build/npmdoc/node-npmdoc-elm/tmp/coverage.npmTes\</tspan>
<tspan x="10" y="1466">t.browser.%2F.json</tspan>
<tspan x="10" y="1482"></tspan>
<tspan x="10" y="1498"></tspan>
<tspan x="10" y="1514">browserTest - merging test-report from /home/travis/build/npmdoc/node-npmdoc-elm/tmp/test-report\</tspan>
<tspan x="10" y="1530">.npmTest.browser.%2F.json</tspan>
<tspan x="10" y="1546"></tspan>
<tspan x="10" y="1562">[node test-case 6 of 6 passed] - testCase_webpage_default</tspan>
<tspan x="10" y="1578">------------------------|-----------|-----------|-----------|-----------|</tspan>
<tspan x="10" y="1594">File                    |   % Stmts |% Branches |   % Funcs |   % Lines |</tspan>
<tspan x="10" y="1610">------------------------|-----------|-----------|-----------|-----------|</tspan>
<tspan x="10" y="1626">   node-npmdoc-elm/     |       100 |       100 |       100 |       100 |</tspan>
<tspan x="10" y="1642">      example.js        |       100 |       100 |       100 |       100 |</tspan>
<tspan x="10" y="1658">      lib.npmdoc_elm.js |       100 |       100 |       100 |       100 |</tspan>
<tspan x="10" y="1674">      test.js           |       100 |       100 |       100 |       100 |</tspan>
<tspan x="10" y="1690">------------------------|-----------|-----------|-----------|-----------|</tspan>
<tspan x="10" y="1706">All files               |       100 |       100 |       100 |       100 |</tspan>
<tspan x="10" y="1722">------------------------|-----------|-----------|-----------|-----------|</tspan>
<tspan x="10" y="1738"></tspan>
<tspan x="10" y="1754">created coverage file:///home/travis/build/npmdoc/node-npmdoc-elm/tmp/build/coverage.html/index.\</tspan>
<tspan x="10" y="1770">html</tspan>
<tspan x="10" y="1786">merging file:///home/travis/build/npmdoc/node-npmdoc-elm/tmp/build/test-report.json to test-repo\</tspan>
<tspan x="10" y="1802">rt</tspan>
<tspan x="10" y="1818"></tspan>
<tspan x="10" y="1834">-------------------------------------------------------</tspan>
<tspan x="10" y="1850">| test-report - buildNpmdoc - node - linux v6.10.1 - 2017-04-04T06:47:09.421Z</tspan>
<tspan x="10" y="1866">|   45839 ms            0 failed        6 passed      |</tspan>
<tspan x="10" y="1882">-------------------------------------------------------</tspan>
<tspan x="10" y="1898"></tspan>
<tspan x="10" y="1914">created test-report file:///home/travis/build/npmdoc/node-npmdoc-elm/tmp/build/test-report.html</tspan>
<tspan x="10" y="1930"></tspan>
<tspan x="10" y="1946"></tspan>
<tspan x="10" y="1962">npmTest - 0 failed tests</tspan>
<tspan x="10" y="1978"></tspan>
<tspan x="10" y="1994"></tspan>
<tspan x="10" y="2010">[MODE_BUILD=npmTest] - 2017-04-04T06:47:58Z - EXIT_CODE - 0</tspan>
</text>
</svg>
